#!OML:ASF F:\VICON\USERDATA\INSTALL\rory3\rory3.ASF
:FULLY-SPECIFIED
:DEGREES
76
root -2.9761 17.5393 21.6177 178.522 18.1772 -174.004
lowerback -4.63923 -1.91088 1.07404
upperback -4.98828 -2.16239 3.05709
thorax -2.46187 -0.904424 2.48733
lowerneck -15.9889 -3.8163 -6.57199
upperneck 36.4214 -2.06817 2.74739
head 15.6826 -0.435282 2.23848
rclavicle -4.22417e-014 -4.57205e-015
rhumerus -16.939 40.8222 -96.1863
rradius 124.011
rwrist -7.28613
rhand -19.3615 -61.0767
rfingers 7.12502
rthumb -173.044 -89.0576
lclavicle -4.22417e-014 -4.57205e-015
lhumerus 67.3498 1.21994 47.9871
lradius 89.6915
lwrist 94.5369
lhand -46.9284 -13.2183
lfingers 7.12502
lthumb -19.6385 15.8097
rfemur -70.7165 -9.20602 37.2658
rtibia 83.0815
rfoot -2.17214 -9.2007
rtoes -4.01022
lfemur -11.4806 0.504995 -23.6572
ltibia 32.7174
lfoot -22.4902 13.8199
ltoes 3.73949
77
root -2.98138 17.5366 21.6284 178.48 18.1659 -173.84
lowerback -4.48794 -1.90229 1.23459
upperback -5.06733 -2.13705 3.12048
thorax -2.63373 -0.890709 2.47007
lowerneck -15.9368 -3.85357 -6.47772
upperneck 36.5825 -2.05121 2.55841
head 15.7458 -0.429515 2.1516
rclavicle -3.40916e-014 6.95746e-015
rhumerus -17.2686 40.7463 -96.2894
rradius 123.915
rwrist -7.11713
rhand -19.6147 -61.0017
rfingers 7.12502
rthumb -173.288 -89.1247
lclavicle -3.40916e-014 6.95746e-015
lhumerus 67.2026 1.04256 47.9706
lradius 89.609
lwrist 94.5193
lhand -47.3189 -13.0319
lfingers 7.12502
lthumb -20.0138 15.9574
rfemur -70.5756 -9.22659 37.3543
rtibia 83.0539
rfoot -2.37333 -9.18136
rtoes -3.6674
lfemur -11.5228 0.561487 -23.4793
ltibia 32.8876
lfoot -22.5324 13.725
ltoes 3.97524
78
root -2.98577 17.5294 21.6426 178.433 18.2563 -173.781
lowerback -4.24478 -1.90319 1.19497
upperback -5.17744 -2.11273 3.24738
thorax -2.87936 -0.869031 2.63417
lowerneck -15.9388 -3.87314 -6.53549
upperneck 36.7703 -1.96772 2.41454
head 15.8367 -0.411665 2.12342
rclavicle -1.51076e-014 3.63776e-014
rhumerus -17.5126 40.8068 -96.2514
rradius 123.855
rwrist -7.1592
rhand -19.4542 -60.8732
rfingers 7.12502
rthumb -173.133 -89.2582
lclavicle -1.51076e-014 3.63776e-014
lhumerus 66.9549 0.949987 48.0111
lradius 89.4178
lwrist 94.4213
lhand -47.3251 -13.3562
lfingers 7.12502
lthumb -20.0198 15.6325
rfemur -70.502 -9.12306 37.3666
rtibia 83.0709
rfoot -2.54902 -9.19513
rtoes -2.56855
lfemur -11.6074 0.721075 -23.4019
ltibia 33.0367
lfoot -22.4977 13.679
ltoes 4.11472
79
root -2.9898 17.5245 21.655 178.366 18.3787 -173.897
lowerback -4.27498 -1.95801 1.0557
upperback -5.18206 -2.17923 3.33648
thorax -2.85611 -0.894757 2.80227
lowerneck -15.6383 -3.80064 -6.80086
upperneck 36.5876 -1.8102 2.44971
head 15.671 -0.379591 2.20718
rclavicle 3.81667e-014 -2.42517e-014
rhumerus -17.5228 41.0646 -96.1901
rradius 123.909
rwrist -7.23739
rhand -18.9634 -61.0629
rfingers 7.12502
rthumb -172.659 -89.0844
lclavicle 3.81667e-014 -2.42517e-014
lhumerus 66.661 1.09351 47.9938
lradius 89.3366
lwrist 94.3443
lhand -46.9859 -13.696
lfingers 7.12502
lthumb -19.6937 15.3265
rfemur -70.5103 -9.02497 37.2464
rtibia 83.1057
rfoot -2.47597 -9.15577
rtoes -2.56009
lfemur -11.7107 0.864132 -23.5185
ltibia 33.1759
lfoot -22.4099 13.7173
ltoes 3.99432
80
root -2.99492 17.5216 21.6627 178.317 18.4515 -174.034
lowerback -4.46723 -1.98433 1.00964
upperback -5.12746 -2.22397 3.32691
thorax -2.68837 -0.918028 2.80961
lowerneck -15.3816 -3.7308 -6.94854
upperneck 36.367 -1.71588 2.50918
head 15.4984 -0.356545 2.26676
rclavicle -7.55382e-015 -1.98785e-015
rhumerus -17.4941 41.1942 -96.194
rradius 124.086
rwrist -7.26399
rhand -18.2092 -61.3714
rfingers 7.12502
rthumb -171.932 -88.8027
lclavicle -7.55382e-015 -1.98785e-015
lhumerus 66.537 1.19944 47.8925
lradius 89.197
lwrist 94.1176
lhand -46.5994 -13.6619
lfingers 7.12502
lthumb -19.3221 15.3982
rfemur -70.5161 -9.00053 37.0941
rtibia 83.1251
rfoot -2.278 -9.14513
rtoes -3.45032
lfemur -11.8128 0.942063 -23.6724
ltibia 33.3059
lfoot -22.4123 13.738
ltoes 4.00993
81
root -3.00075 17.5194 21.6754 178.315 18.4535 -173.967
lowerback -4.4699 -1.95739 1.13805
upperback -5.10324 -2.19232 3.32427
thorax -2.66829 -0.906722 2.73498
lowerneck -15.4685 -3.70872 -6.86429
upperneck 36.3172 -1.69821 2.45036
head 15.4905 -0.35084 2.22689
rclavicle 1.75924e-014 1.59028e-015
rhumerus -17.365 41.1181 -96.1218
rradius 124.08
rwrist -7.26543
rhand -17.9017 -61.6214
rfingers 7.12502
rthumb -171.635 -88.5642
lclavicle 1.75924e-014 1.59028e-015
lhumerus 66.5776 1.16074 47.908
lradius 89.0806
lwrist 94.1413
lhand -46.8029 -12.9554
lfingers 7.12502
lthumb -19.5178 16.085
rfemur -70.4707 -9.02266 37.1349
rtibia 83.123
rfoot -2.13944 -9.20832
rtoes -3.92385
lfemur -11.9033 0.995461 -23.5996
ltibia 33.4067
lfoot -22.4663 13.6453
ltoes 4.26122
82
root -3.00543 17.5182 21.6916 178.339 18.3988 -173.862
lowerback -4.44072 -1.93896 1.24949
upperback -5.06881 -2.17148 3.33835
thorax -2.65362 -0.900239 2.68772
lowerneck -15.6942 -3.72783 -6.75044
upperneck 36.2732 -1.73845 2.34279
head 15.5211 -0.377608 2.14965
rclavicle 1.48095e-014 -8.34896e-015
rhumerus -17.1067 41.0497 -95.9576
rradius 123.947
rwrist -7.29657
rhand -18.116 -61.9004
rfingers 7.12502
rthumb -171.842 -88.2771
lclavicle 1.48095e-014 -8.34896e-015
lhumerus 66.6455 1.15046 48.0422
lradius 89.1781
lwrist 94.3236
lhand -47.4707 -11.6712
lfingers 7.12502
lthumb -20.1597 17.3027
rfemur -70.4544 -9.07099 37.2042
rtibia 83.1607
rfoot -2.1766 -9.27608
rtoes -3.6007
lfemur -12.0147 1.02042 -23.471
ltibia 33.4965
lfoot -22.4567 13.5144
ltoes 4.24454
